<svg width="1600" height="1600" viewBox="0 0 1600 1600" fill="none" xmlns="http://www.w3.org/2000/svg">
<path d="M694 1169C577 1169 392.613 1180.14 412 1166.5C479.5 1119 575.5 1046.5 592 957C603.983 892.003 594 802 482 802C392.4 802 367.167 907 349.5 961M889.29 980.525C880.76 962.8 856.143 916.74 826.5 907C791.5 895.5 662.5 858.5 637 803.5C624.02 775.504 596.681 718.448 640.5 678C684.319 637.552 870 587 1009.5 610M460 925C450.5 987.333 421 1070.48 388 1094.5C327.5 1138.54 246.077 1095.1 274 944.5C304.5 780 460.833 648.682 523 604C619 535 558.5 505.5 638.5 444.5C653.97 432.704 718.293 425.736 753.239 467.806C754.35 469.143 756.084 469.881 757.812 469.69C794.683 465.6 779.686 466.348 829.419 461.214C830.721 461.08 832.001 460.389 832.853 459.396C893.542 388.643 963.259 465.329 952 509.5C945.5 535 1026.5 559 1009.5 610M1009.5 610C995.9 650.8 913 699.5 864.5 751.5C816 803.5 949.5 895.5 949.5 895.5" stroke="#10CC79" stroke-width="40" stroke-linecap="round"/>
<path d="M899.346 1074H1214.06C1216.15 1074 1217.98 1072.69 1218.7 1070.72L1332.03 762.224C1333.23 758.961 1330.81 755.5 1327.34 755.5H1005.57C1003.43 755.5 1001.53 756.855 1000.84 758.874L894.778 1067.37C893.662 1070.62 895.913 1074 899.346 1074ZM899.346 1074C859.846 1074 724.5 1083 693.5 1067.5C665.683 1053.59 648.5 991 670.5 987.5C689.924 984.41 884.601 989.403 921.379 990" stroke="black" stroke-width="40" stroke-linecap="round"/>
<path d="M717 521C717 539.778 700.658 555 680.5 555C660.342 555 644 539.778 644 521C644 502.222 660.342 487 680.5 487C700.658 487 717 502.222 717 521Z" fill="black"/>
<path d="M717 521C717 513.821 714.56 506.826 710.031 501.017C705.501 495.209 699.114 490.885 691.785 488.666C691.785 488.666 682 503.5 695 518.5C708 533.5 717 521 717 521Z" fill="white"/>
</svg>
