<svg width="1200" height="1200" viewBox="0 0 1200 1200" fill="none" xmlns="http://www.w3.org/2000/svg">
<path d="M493.656 967.35C376.656 967.35 192.268 978.493 211.656 964.85C279.156 917.35 375.156 844.85 391.656 755.35C403.638 690.353 393.656 600.35 281.656 600.35C192.056 600.35 166.822 705.35 149.156 759.35M688.946 778.876C680.416 761.15 655.799 715.09 626.156 705.35C591.156 693.85 462.156 656.85 436.656 601.85C423.676 573.854 396.337 516.798 440.156 476.35C483.974 435.902 669.656 385.35 809.156 408.35M259.656 723.35C250.156 785.684 220.656 868.826 187.656 892.85C127.156 936.894 45.7325 893.454 73.6559 742.85C104.156 578.35 260.489 447.033 322.656 402.35C418.656 333.35 358.156 303.85 438.156 242.85C453.626 231.054 517.949 224.086 552.895 266.156C554.006 267.494 555.74 268.232 557.468 268.04C594.339 263.95 579.342 264.699 629.074 259.565C630.377 259.43 631.657 258.74 632.509 257.746C693.198 186.994 762.915 263.679 751.656 307.85C745.156 333.35 826.156 357.35 809.156 408.35M809.156 408.35C795.556 449.15 712.656 497.85 664.156 549.85C615.656 601.85 749.156 693.85 749.156 693.85" stroke="#10CC79" stroke-width="40" stroke-linecap="round"/>
<path d="M699.001 872.35H1013.71C1015.81 872.35 1017.64 871.042 1018.36 869.074L1131.69 560.574C1132.88 557.311 1130.47 553.85 1126.99 553.85H805.224C803.089 553.85 801.19 555.206 800.496 557.225L694.434 865.725C693.318 868.971 695.569 872.35 699.001 872.35ZM699.001 872.35C659.501 872.35 524.156 881.35 493.156 865.85C465.339 851.942 448.156 789.35 470.156 785.85C489.58 782.76 684.257 787.754 721.035 788.35" stroke="black" stroke-width="40" stroke-linecap="round"/>
<path d="M516.656 319.35C516.656 338.128 500.314 353.35 480.156 353.35C459.997 353.35 443.656 338.128 443.656 319.35C443.656 300.573 459.997 285.35 480.156 285.35C500.314 285.35 516.656 300.573 516.656 319.35Z" fill="black"/>
<path d="M516.656 319.35C516.656 312.171 514.216 305.176 509.687 299.368C505.157 293.559 498.77 289.236 491.44 287.016C491.44 287.016 481.656 301.85 494.656 316.85C507.656 331.85 516.656 319.35 516.656 319.35Z" fill="white"/>
</svg>
